<svg xmlns="http://www.w3.org/2000/svg" viewBox="0 0 25.368 23.561375" height="23.5614" width="25.368"><defs><clipPath id="a"><path d="M0 18.849h20.294V0H0v18.849z"/></clipPath></defs><g clip-path="url(#a)" transform="matrix(1.25 0 0 -1.25 0 23.56)"><path d="M17.0166 7.2842H3.2776l-.81 2.836h15.36l-.811-2.836zm-1.653-5.784H4.9306l-1.224 4.284h12.881l-1.224-4.284zm4.181 10.12h-3.151l-3.407 6.814c-.185.371-.635.52-1.007.336-.37-.186-.52-.636-.335-1.007l3.071-6.143h-9.137l3.071 6.143c.185.371.035.821-.335 1.007-.37.184-.821.035-1.006-.336l-3.407-6.814H.7496c-.414 0-.75-.336-.75-.75s.336-.75.75-.75h.158l.855-2.991c-.187-.137-.316-.346-.316-.595 0-.396.309-.71.696-.739l1.656-5.795h12.697l1.656 5.795c.388.028.698.343.698.739 0 .249-.13.459-.317.596l.855 2.99h.157c.414 0 .75.336.75.75s-.336.75-.75.75" fill="#231f20"/></g></svg>