<svg xmlns="http://www.w3.org/2000/svg" viewBox="0 0 19.9492 36.957733" height="36.9577" width="19.9492"><defs><clipPath id="a"><path d="M0 27.718h14.962V0H0z"/></clipPath></defs><g clip-path="url(#a)" transform="matrix(1.33 0 0 -1.33 0 36.96)"><path d="M7.8447 17.7427c.117-.254.254-.486.414-.698.079-.022.203-.003.205-.1 1.193-.056 2.199.069 3.096.299 0-.998-.271-1.733-.518-2.492-.662-.045-1.467-.3-1.958-.198-.276-.165-.372-.506-.62-.698-.049-.442.142-.495 0-.797-.201-.137-.055-.611-.205-.796v-1.496c.085-.281-.145-.258-.103-.497v-3.488c-.085-.282.146-.258.103-.498v-2.99c.064-.27-.132-.791.103-.896-.071-.364-.413.02-.825-.1-.528-.122-.925-.369-1.547-.4.117.352.32.622.31 1.096.049.381-.365.312-.516.499.194.643.563 1.117.722 1.792.197.515.714 1.298.31 1.794-.523.106-.522-.293-.826-.398-.023-.077-.002-.196-.103-.199-.023-.077-.003-.197-.103-.199.01-.121-.151-.062 0 0 .023.078.002.197.103.199.023.077.002.197.103.199v.299c.368.575.669 1.214.826 1.993.191.28.283.656.412.997.156.262.34.869.104 1.195-.516-.033-.796-.295-.929-.697-.321.19.161.434.104.697.138.232.169.567.309.797.202.413.564 1.304 0 1.596-.438.023-.613-.207-.723-.498-.214-.192-.43-.383-.516-.698-.373.07-.142.726-.206 1.096-.067.52.122.9 0 1.196-.559.798-2.026.105-3.197.298-.108.307-.222.985-.103 1.196 1.045.088 2.478-.201 3.197.199.024.078.003.197.103.199.094.723-.271 1-.514 1.396.232.805.04 2.02.103 2.989.234.141.328.414.515.598.112.955.673 1.475.722 2.492-.274-.002-.608.055-.62-.199-.301.114-.381-.479-.514-.2-.113.541.246.626.308.997.599.418 1.212.821 1.857 1.196 1.741.244 4.648.449 6.086-.198.051-.617-.287-.854-.207-1.497h-1.546c-1.092-.24-1.987-.671-2.991-.997-.241-.066-.277-.331-.516-.398-.036-.397-.225-.647-.311-.996-.08-1.439.132-2.596.102-3.986m3.817 4.783c1.027-.03 1.994 0 2.681.3.391.817.556 1.854.619 2.989-.19.014-.062.337-.207.399-.029.202-.278.195-.308.398-.278.165-.457.422-.723.598-.727.161-1.441.335-2.164.498-.849-.044-1.895.103-2.58-.099-2.619.04-3.997-1.12-5.26-2.392-.022-.078-.003-.197-.104-.199-.575-1.587-.125-3.621-.205-5.581.099-.436.108-.959.205-1.395-.999-.296-2.212-.386-3.403-.499-.317-.323-.178-1.089-.206-1.693.085-.583.278-1.06.413-1.595.211-.193.596-.396.825-.498.065-.029.072-.082.103-.099.506-.268 1.451-.008 2.268-.1-.137-1.978.255-3.915 0-5.68.006-.327.294-.382.207-.798-.001-.962-.067-1.99.208-2.69-.288-.455-.497-.982-.415-1.794.122-.016.113-.157.104-.299-.074-.47.644-.175.516-.698.162-.456-.428-.184-.413-.498v-.897c.53-.285 1.462-.181 2.268-.199.908.419 2.188.479 2.785 1.196.459-.235.916.014 1.239.2-.018.315.273.333.205.698-.004.328-.173.496-.103.896v2.889c-.206 2.293-.048 4.939-.309 7.176.888.105 1.917.075 2.579.398.357.452.377 1.231.515 1.895.177.225.221.583.206.996.191.213.069.729.104 1.096-.141.595-.168 1.299-.825 1.395-.884.235-2.043-.596-2.992-.299.049 1.134-.293 2.342 0 3.388.747.176 1.448.395 2.167.597" fill="#231f20"/></g></svg>