<svg xmlns="http://www.w3.org/2000/svg" width="17.7778in" height="11.1111in" viewBox="0 0 17778 11111" shape-rendering="geometricPrecision" text-rendering="geometricPrecision" image-rendering="optimizeQuality" fill-rule="evenodd" clip-rule="evenodd"><defs><style><![CDATA[
    .str0 {stroke:#231F1F;stroke-width:13.8898}
    .fil0 {fill:black;fill-rule:nonzero}
   ]]></style></defs><path class="fil0 str0" d="M8900 4208l-11-1-1065 112v1952l1065 634 1065-634V4319l-1054-111zm915 1984l-926 551-926-551v-800l922 549 2 99-632-376-1 97 635 382 2 102-635-378-1 97 635 382 641-384v-97h-1v-315l286-171v814zm-1-917l-253 149-117 69-558-332-1 97 477 283-4 2-10 6-68 40-393-234-1 97 311 185-73 49-2 1-235-138-1 97 154 91-157 94-917-545 919-552 930 542zm1-97l-931-549-921 548v-732l926-97 926 97v733z" id="__x0023_Layer_x0020_1"/></svg>