<svg xmlns="http://www.w3.org/2000/svg" width="62.0999" height="36.4414" viewBox="0 0 647 380" shape-rendering="geometricPrecision" text-rendering="geometricPrecision" image-rendering="optimizeQuality" fill-rule="evenodd" clip-rule="evenodd"><defs><style><![CDATA[
    .fil0 {fill:black;fill-rule:nonzero}
   ]]></style></defs><g id="Money"><path class="fil0" d="M593 0H55C25 0 1 24 1 54v271c0 30 24 54 54 54h538c30 0 54-24 54-54V54c0-30-24-54-54-54zM42 347V38h558v309H42z"/><path class="fil0" d="M96 292h450V92H96v200zm227-174c41 0 74 33 74 74s-33 74-74 74-74-33-74-74 33-74 74-74z"/></g></svg>