<svg xmlns="http://www.w3.org/2000/svg" viewBox="0 0 67.695374 28.978874" height="28.9789" width="67.6954"><defs><clipPath id="a"><path d="M0 23.183h54.156V0H0v23.183z"/></clipPath></defs><g clip-path="url(#a)" transform="matrix(1.25 0 0 -1.25 0 28.98)"><path d="M40.3115 17.4717c-3.647.971-7.839 1.667-12.359 1.666-2.891-.001-5.457-.243-7.71-.623l-6.785 4.668-13.456-.005 5.811-6.184h8.447c-4.58-1.598-6.759-3.515-6.759-3.515l.002-3.777s2.314-1.912 6.931-3.517l-8.623.005-5.811-6.188 13.456-.002 6.816 4.693c2.261-.399 4.822-.648 7.681-.649 4.522.001 8.712.698 12.36 1.667-1.176 1.776-1.915 3.743-1.918 5.877.003 2.139.738 4.111 1.917 5.884M43.7344 16.4375c-1.284-1.605-1.969-3.25-1.965-4.84-.007-1.597.677-3.238 1.968-4.847 6.399 2.163 10.419 4.841 10.419 4.841s-4.019 2.679-10.422 4.846"/></g></svg>