<svg xmlns="http://www.w3.org/2000/svg" width="45.8306" height="45.8298" viewBox="0 0 477 477" shape-rendering="geometricPrecision" text-rendering="geometricPrecision" image-rendering="optimizeQuality" fill-rule="evenodd" clip-rule="evenodd"><defs><style><![CDATA[
    .fil0 {fill:#373435;fill-rule:nonzero}
   ]]></style></defs><g id="__x0023_Layer_x0020_1"><g id="_301724512"><path class="fil0" d="M4 195c-5 29-5 58 0 88l57-45-57-43zM339 22C273-9 194-8 127 28l104 78 108-84zM471 183l-67 52 69 51c7-34 6-69-2-103zM128 450c67 35 149 37 218 2l-112-84-106 83zM110 200l-87-65c-4 9-8 19-11 29l74 55 24-19zM258 349l116 87c4-3 8-5 11-8 4-3 9-7 13-11l-116-87-24 19zM159 163L56 86l-18 24 96 72 24-19zM307 311l112 84c7-8 13-15 18-24l-106-79-24 19zM207 125L100 45c-3 2-5 4-8 6-6 4-11 9-16 13l107 80 24-19zM355 273l97 73c5-9 9-19 12-28l-84-63-24 19zM367 38L12 315c3 10 7 19 12 29L392 57c-8-7-16-13-25-18zM427 92c-4-5-9-10-13-15L39 369c4 6 8 11 12 16 2 3 4 5 6 7L433 99c-2-3-4-5-6-8zM449 125L78 414c8 7 15 13 24 19l361-281c-4-9-8-19-13-28z"/></g></g></svg>