<svg xmlns="http://www.w3.org/2000/svg" width="42.6293" height="49.734" viewBox="0 0 444 518" shape-rendering="geometricPrecision" text-rendering="geometricPrecision" image-rendering="optimizeQuality" fill-rule="evenodd" clip-rule="evenodd"><defs><style><![CDATA[
    .fil0 {fill:#231F1F;fill-rule:nonzero}
   ]]></style></defs><path class="fil0" d="M222 518c123 0 222-99 222-222-123 0-222 99-222 222zM64 228c0 34 28 62 62 62 13 0 25-4 35-11v5c0 34 28 62 62 62s62-28 62-62l-1-5c10 7 22 11 35 11 34 0 62-28 62-62 0-25-14-46-35-56 21-10 35-31 35-56 0-34-28-62-62-62-13 0-25 4-35 11l1-5c0-34-28-62-62-62s-62 28-62 62v5c-10-7-22-11-35-11-34 0-62 28-62 62 0 25 14 46 35 56-21 10-35 31-35 56zm158-117c34 0 62 28 62 62s-28 62-62 62-62-28-62-62 28-62 62-62zM0 296c0 123 99 222 222 222 0-123-99-222-222-222z" id="__x0023_Layer_x0020_1"/></svg>