<svg xmlns="http://www.w3.org/2000/svg" width="53.6254" height="83.2146" viewBox="0 0 559 867" shape-rendering="geometricPrecision" text-rendering="geometricPrecision" image-rendering="optimizeQuality" fill-rule="evenodd" clip-rule="evenodd"><defs><style><![CDATA[
    .fil0 {fill:black;fill-rule:nonzero}
   ]]></style></defs><g id="svg4488"><g id="_318334376"><path class="fil0" d="M211 527c-4 13-3 30 0 51 7 37 23 84 33 134h70c10-51 27-98 34-134 4-20 5-37 1-50-4-12-12-22-28-32h-83c-15 9-23 19-27 32zM375 805H183c-18 0-32 14-32 31v31h256v-31c0-17-14-31-32-31zM474 31H311c0-17-14-31-32-31s-32 14-32 31H84L0 385c11-6 22-14 37-14 19 0 31 11 41 19 9 8 16 12 20 12s11-4 20-12 22-19 40-19c19 0 31 11 41 19 9 8 16 12 20 12 2 0 5-1 8-3s7-5 12-9c7-6 16-13 28-17 4-1 8-2 13-2 19 0 31 11 41 19 9 8 16 12 20 12s11-4 20-12c10-8 22-19 41-19s31 11 41 19c5 4 9 7 12 9s6 3 8 3c4 0 11-4 20-12s22-19 41-19c15 0 26 7 37 14L477 31zM327 743h-95c-9 0-16 7-16 15 0 9 7 15 16 15h96c9 0 16-7 16-15 0-9-7-15-16-15h-1zM279 403c-2 0-5 1-8 3-2 1-5 4-8 6v52h32v-52c-7-5-13-9-16-9z"/></g></g></svg>