<svg xmlns="http://www.w3.org/2000/svg" viewBox="0 0 82.502502 126.0025" height="126.0025" width="82.5025"><defs><clipPath id="a"><path d="M0 100.802h66.002V0H0v100.802z"/></clipPath></defs><g clip-path="url(#a)" transform="matrix(1.25 0 0 -1.25 0 126)"><path d="M56.335 91.5728c-12.892 12.305-33.773 12.305-46.667 0-12.891-12.297-12.891-32.248 0-44.542 0 0 23.318-21.832 23.318-47.031 0 25.199 23.343 47.031 23.343 47.031 12.897 12.294 12.897 32.245.006 44.542" fill="#fff"/><path d="M47.036 55.2783c-.636 3.277.13 6.947.027 10.284-.115 3.756-.713 7.485-.665 11.246.039 3.044.545 6.174-.503 9.091.066.332.134.662.196.995.27 1.463-4.577.69-5.338-.649-.48-.392-.726-.861-.524-1.339.051-.121.097-.243.142-.365-.917-4.485-2.197-8.826-3.668-13.174-.563-1.663-1.244-3.288-1.817-4.946-.815 1.545-1.638 3.071-2.3 4.728-1.923 4.805-3.656 9.661-6.001 14.285.266 2.14-4.484 1.916-5.421-.044-1.132-2.371-.985-4.763-.612-7.299.42-2.858.493-5.668.527-8.554.067-5.566.502-11.119.585-16.683-.496-.552-.646-1.233-.127-1.925.226-.301.505-.535.799-.768 1.265-1.013 4.9-.151 4.893 1.779-.02 5.771-.436 11.531-.589 17.299-.015.565-.025 1.129-.033 1.694.08-.203.158-.406.24-.608.896-2.245 1.833-4.427 3.059-6.514 1.213-2.068 1.823-4.289 2.523-6.547-.265-.303-.423-.647-.326-.991-.055-.251.099-.409.351-.504.894-.766 2.578-.383 3.514.01.4.168.785.364 1.155.593.483.297 1.236.95 1.02 1.622-.041.13-.081.26-.121.39.658 1.777.993 3.625 1.352 5.5.381 2 1.095 3.892 1.811 5.786.074-.867.15-1.732.219-2.597.285-3.574.046-7.098.011-10.674-.013-1.185.074-2.287.306-3.445.095-.48.513-2.53.393-2.642-.855-.79-.606-1.759.539-2.011 1.279-.281 2.912.149 3.877 1.039 1.677 1.549.884 3.982.506 5.938" fill="#6bc6b3"/></g></svg>