<svg xmlns="http://www.w3.org/2000/svg" viewBox="0 0 21.9995 21.998249" height="21.9982" width="21.9995"><defs><clipPath id="a"><path d="M0 17.599h17.6V0H0v17.599z"/></clipPath></defs><g clip-path="url(#a)" transform="matrix(1.25 0 0 -1.25 0 22)"><path d="M2.1982 9.9004c0 3.038 2.462 5.5 5.5 5.5s5.5-2.462 5.5-5.5-2.462-5.5-5.5-5.5-5.5 2.461-5.5 5.5m15.071-8.031l-3.415 3.415c.965 1.289 1.545 2.881 1.545 4.616 0 4.253-3.447 7.698-7.7 7.698s-7.699-3.445-7.699-7.698 3.445-7.7 7.698-7.7c1.734 0 3.326.58 4.613 1.546l3.417-3.416c.203-.202.418-.33.772-.33.606 0 1.099.492 1.099 1.099 0 .24-.061.499-.33.77" fill="#231f20"/></g></svg>