<svg xmlns="http://www.w3.org/2000/svg" viewBox="0 0 74.998749 74.524498" height="74.5245" width="74.9987"><defs><clipPath id="a"><path d="M0 59.62h59.999V0H0v59.62z"/></clipPath></defs><g clip-path="url(#a)" transform="matrix(1.25 0 0 -1.25 0 74.53)"><path d="M29.9155 53.0474c4.269 0 7.723 1.47 7.723 3.286 0 1.814-3.454 3.286-7.723 3.286-4.27 0-7.729-1.472-7.729-3.286 0-1.816 3.459-3.286 7.729-3.286m2.641-29.904V.0004l27.442 15.938v23.144l-27.442-15.939zm5.146 13.873c0-1.817-3.46-3.287-7.727-3.287-4.268 0-7.729 1.47-7.729 3.287v4.059h.024c.26-1.715 3.603-3.076 7.705-3.076 4.101 0 7.443 1.361 7.705 3.076h.022v-4.059zm13.643 10.166v-2.453c0-1.817-3.458-3.289-7.73-3.289-4.266 0-7.727 1.472-7.727 3.289v4.059h.025c.259-1.715 3.603-3.073 7.702-3.073 4.272 0 7.729 1.474 7.729 3.285 0 1.819-3.457 3.288-7.729 3.288-.339 0-.675-.01-1.002-.03l-4.975 2.889v-3.086c0-1.817-3.454-3.29-7.723-3.29-2.682 0-5.044.583-6.432 1.467-.196.204-.44.401-.733.586-.362.382-.564.797-.564 1.237v2.986l-4.808-2.792c-.346.017-.696.033-1.053.033-4.267 0-7.727-1.469-7.727-3.288 0-1.811 3.46-3.285 7.727-3.285 4.099 0 7.445 1.358 7.704 3.073h.022v-4.059c0-1.817-3.455-3.289-7.726-3.289-4.267 0-7.727 1.472-7.727 3.289v2.421l-5.952-3.452 27.531-15.986 27.351 15.882-6.183 3.588zm-51.346-31.244L27.4385.0054v23.345l-27.439 15.94v-23.352z" fill="#231f20"/></g></svg>